HIERARCHY
ROOT Hips
{
	OFFSET 0.00000 0.00000 0.00000
	CHANNELS 6 Xposition Yposition Zposition Zrotation Yrotation Xrotation 
	JOINT LHipJoint
	{
		OFFSET 0 0 0
		CHANNELS 3 Zrotation Yrotation Xrotation
		JOINT LeftHip
		{
			OFFSET 1.83091 -1.65485 0.80491
			CHANNELS 3 Zrotation Yrotation Xrotation
			JOINT LeftKnee
			{
				OFFSET 2.11983 -5.82419 0.00000
				CHANNELS 3 Zrotation Yrotation Xrotation
				JOINT LeftAnkle
				{
					OFFSET 2.66794 -7.33011 0.00000
					CHANNELS 3 Zrotation Yrotation Xrotation
					JOINT LeftToe
					{
						OFFSET 0.15587 -0.42826 1.82520
						CHANNELS 3 Zrotation Yrotation Xrotation
						End Site
						{
							OFFSET 0.00000 -0.00000 0.94802
						}
					}
				}
			}
		}
	}
	JOINT RHipJoint
	{
		OFFSET 0 0 0
		CHANNELS 3 Zrotation Yrotation Xrotation
		JOINT RightHip
		{
			OFFSET -1.96593 -1.65485 0.80491
			CHANNELS 3 Zrotation Yrotation Xrotation
			JOINT RightKnee
			{
				OFFSET -2.00526 -5.50940 0.00000
				CHANNELS 3 Zrotation Yrotation Xrotation
				JOINT RightAnkle
				{
					OFFSET -2.64167 -7.25794 0.00000
					CHANNELS 3 Zrotation Yrotation Xrotation
					JOINT RightToe
					{
						OFFSET -0.19578 -0.53789 1.94104
						CHANNELS 3 Zrotation Yrotation Xrotation
						End Site
						{
							OFFSET -0.00000 -0.00000 1.01373
						}
					}
				}
			}
		}
	}
	JOINT lowerback
	{
		OFFSET 0 0 0
		CHANNELS 3 Zrotation Yrotation Xrotation
		JOINT Chest
		{
			OFFSET 0.01139 2.01356 -0.24266
			CHANNELS 3 Zrotation Yrotation Xrotation
			JOINT Chest2
			{
				OFFSET 0.00315 2.01402 -0.18659
				CHANNELS 3 Zrotation Yrotation Xrotation
				JOINT lowerneck
				{
					OFFSET 0 0 0
					CHANNELS 3 Zrotation Yrotation Xrotation
					JOINT Neck
					{
						OFFSET -0.15348 1.85288 0.32547
						CHANNELS 3 Zrotation Yrotation Xrotation
						JOINT Head
						{
							OFFSET 0.23013 1.84255 -0.51894
							CHANNELS 3 Zrotation Yrotation Xrotation
							End Site
							{
								OFFSET 0.08244 1.94374 -0.22179
							}
						}
					}
				}
				JOINT LeftCollar
				{
					OFFSET 0 0 0
					CHANNELS 3 Zrotation Yrotation Xrotation
					JOINT LeftShoulder
					{
						OFFSET 3.63468 1.26528 -0.10015
CHANNELS 3 Zrotation Xrotation Yrotation
						JOINT LeftElbow
						{
OFFSET 0 -5.535930 -0.000000
CHANNELS 3 Zrotation Xrotation Yrotation
							JOINT LeftWrist
							{
OFFSET 0 -3.133450 0.000000
CHANNELS 3 Zrotation Xrotation Yrotation
								JOINT lhand
								{
									OFFSET 0 0 0
CHANNELS 3 Zrotation Xrotation Yrotation
									JOINT LFingers
									{
OFFSET 0 -0.713370 0.000000
CHANNELS 3 Zrotation Xrotation Yrotation
										End Site
										{
OFFSET 0 -0.575140 0.000000
										}
									}
								}
								JOINT LThumb
								{
OFFSET 0 0.000000 0.000000
CHANNELS 3 Zrotation Xrotation Yrotation
									End Site
									{
OFFSET 0 -0.583920 0.583920
									}
								}
							}
						}
					}
				}
				JOINT RightCollar
				{
					OFFSET 0 0 0
					CHANNELS 3 Zrotation Yrotation Xrotation
					JOINT RightShoulder
					{
						OFFSET -3.31009 1.23247 0.08205
CHANNELS 3 Zrotation Xrotation Yrotation
						JOINT RightElbow
						{
OFFSET 0 -5.468500 0.000000
CHANNELS 3 Zrotation Xrotation Yrotation
							JOINT RightWrist
							{
OFFSET 0 -3.224110 -0.000000
CHANNELS 3 Zrotation Xrotation Yrotation
								JOINT rhand
								{
									OFFSET 0 0 0
CHANNELS 3 Zrotation Xrotation Yrotation
									JOINT RFingers
									{
OFFSET 0 -0.745280 0.000000
CHANNELS 3 Zrotation Xrotation Yrotation
										End Site
										{
OFFSET 0 -0.600860 0.000000
										}
									}
								}
								JOINT RThumb
								{
OFFSET 0 0.000000 0.000000
CHANNELS 3 Zrotation Xrotation Yrotation
									End Site
									{
OFFSET 0 -0.610040 0.610040
									}
								}
							}
						}
					}
				}
			}
		}
	}
}
MOTION
Frames: 5
Frame Time: 0.008333333333333333
10.159300 15.887800 -22.002500 5.720900 6.263800 10.014600 0.000000 0.000000 0.000000 -27.626100 10.065600 17.513900 0.000000 -0.000000 -0.000000 -0.037200 -3.954700 -0.673900 0.003000 -0.355500 -0.976800 0.000000 0.000000 0.000000 12.263700 14.385400 -40.339200 -2.676100 -10.151400 29.468300 0.118900 -6.799000 -5.676300 -0.702800 5.358500 -14.934000 -3.293800 -2.328400 1.556300 0.101600 -3.121000 2.098900 1.949400 -1.608600 1.464900 -11.863100 -4.836100 -24.855100 9.452400 -4.987700 23.690600 4.727400 -2.043800 12.550900 -0.000000 0.000000 0.000000 5.742200 0.002200 -37.253700 22.638400 -33.691100 6.936700 20.723300 -2.096000 -28.023500 0.000000 0.000000 0.000000 -7.125000 0.000000 0.000000 -11.209400 59.270900 3.938400 -0.000000 0.000000 0.000000 -8.573000 13.674400 36.688800 -20.176400 -30.854200 -5.621500 -16.703300 -17.709100 -18.751100 0.000000 0.000000 0.000000 7.125000 0.000000 -0.000000 7.461400 10.593000 6.015200
10.018745 16.270362 -19.678961 0.133239 4.814612 9.090036 0.000000 0.000000 0.000000 -19.935279 4.714711 -10.851961 8.581722 16.523213 54.620177 -0.336582 15.000572 6.322080 0.588018 4.781109 13.310187 0.000000 0.000000 0.000000 23.647913 8.736330 -27.875655 -1.744378 -8.310359 23.661704 -0.110581 0.860992 -6.038050 -0.170481 2.659748 -7.332859 3.115136 -1.787938 2.152025 1.529004 -2.324153 1.349326 -0.129381 -1.148219 0.118248 -11.697700 -4.258494 -25.417282 9.310876 -4.224907 25.505441 4.861014 -1.723759 13.285079 0.000000 0.000000 0.000000 6.570779 2.087762 -40.104441 22.583473 -33.630217 6.906208 18.284592 -2.465324 -30.397449 0.000000 0.000000 0.000000 -7.125000 0.000000 0.000000 -15.424585 61.026979 6.115292 0.000000 0.000000 0.000000 -9.780606 13.004637 40.473860 -21.937512 -32.905809 -6.552118 -14.492638 -18.780052 -17.365378 0.000000 0.000000 0.000000 7.125000 0.000000 0.000000 8.869813 12.239769 6.872444
9.928116 16.417197 -17.437519 -0.814679 0.775505 7.594377 0.000000 0.000000 0.000000 -18.584270 -2.392163 -32.669690 15.384991 19.481521 76.393655 -0.025719 7.995273 -10.852050 0.094457 1.835791 5.057098 0.000000 0.000000 0.000000 27.290452 5.477273 -13.190115 -0.922015 -6.117510 17.125817 -0.277877 4.067375 -9.386096 -0.197907 2.855816 -7.878069 3.959624 -0.113532 1.838699 0.914526 -0.097500 1.326589 -1.279371 -0.026493 0.325635 -11.047555 -4.066890 -25.699192 8.738419 -4.172735 28.533863 4.661582 -1.754446 14.597178 0.000000 0.000000 0.000000 6.880675 4.315997 -38.293441 22.499405 -33.536862 6.859703 19.473264 -2.720102 -32.313504 0.000000 0.000000 0.000000 -7.125000 0.000000 0.000000 -15.549922 63.180826 6.948188 0.000000 0.000000 0.000000 -11.188742 9.084051 42.379910 -25.447044 -36.656776 -8.555688 -12.668951 -20.986709 -11.061181 0.000000 0.000000 0.000000 7.125000 0.000000 0.000000 10.144560 18.745965 6.447323
9.907700 16.083014 -15.150532 -2.809373 -0.910160 6.633469 0.000000 0.000000 0.000000 -15.547131 -10.042461 -45.402593 9.850849 17.320733 58.982626 0.721884 3.201837 -17.546275 0.841022 -5.711234 -15.982944 0.000000 0.000000 0.000000 30.828995 2.002702 -2.929698 -0.972361 -6.276618 17.589605 -0.933784 5.867635 -17.239221 -0.245242 3.186293 -8.797782 6.317777 0.832252 2.065401 0.810624 1.219490 1.129004 -2.727468 0.636289 0.119706 -10.771433 -3.772268 -25.890220 7.877496 -3.720129 32.548498 4.537922 -1.733881 16.432834 0.000000 0.000000 0.000000 7.440781 6.102621 -35.929352 19.761008 -30.352825 5.410316 16.991537 1.218182 -30.744033 0.000000 0.000000 0.000000 -7.125000 0.000000 0.000000 -17.099781 61.043923 6.810156 0.000000 0.000000 0.000000 -13.397432 6.241732 43.581809 -31.927861 -42.488992 -12.692347 -18.064170 -25.269384 -16.936430 0.000000 0.000000 0.000000 7.125000 0.000000 0.000000 6.495535 12.303611 4.991713
9.945480 15.992708 -12.586492 -5.389997 -2.582115 7.296409 0.000000 0.000000 0.000000 -11.895076 -14.661743 -44.111760 2.175246 9.220895 26.489591 0.483340 -0.619847 -12.935726 0.556441 -4.778291 -13.277274 0.000000 0.000000 0.000000 31.542952 -5.375172 15.559172 0.000000 0.000000 0.000000 -0.222814 5.119799 -8.590169 -0.266472 3.310790 -9.146104 8.928599 1.810206 0.452050 0.983690 2.379873 1.269538 -3.953844 1.282109 1.388406 -10.601327 -3.869887 -25.421361 7.274035 -3.838829 34.352815 4.300384 -1.898959 17.242373 0.000000 0.000000 0.000000 5.841414 7.015306 -26.971667 16.203152 -25.795276 3.733934 18.016819 6.099380 -29.104547 0.000000 0.000000 0.000000 -7.125000 0.000000 0.000000 -14.816807 59.709977 5.392751 0.000000 0.000000 0.000000 -14.554860 4.293228 44.227929 -35.490925 -45.159449 -15.160420 -18.353383 -27.233001 -19.848347 0.000000 0.000000 0.000000 7.125000 0.000000 0.000000 6.446135 9.262700 5.359401
